<?xml version="1.0" encoding="iso-8859-1"?><!-- Generator: Adobe Illustrator 22.0.0, SVG Export Plug-In . SVG Version: 6.00 Build 0)  -->
<svg version="1.1" id="Layer_1" xmlns="http://www.w3.org/2000/svg"
    xmlns:xlink="http://www.w3.org/1999/xlink" x="0px" y="0px" viewBox="0 0 1280 1024"
    style="enable-background:new 0 0 1280 1024;" xml:space="preserve">
<path style="fill:#B2203C;" d="M706.375,671.524c0,32.788-33.544,59.383-74.907,59.383c-41.363,0-74.907-26.596-74.907-59.383
	c0-10.159,3.225-19.718,8.889-28.079c3.952-2.811,7.89-5.408,11.871-7.748c11.743-5.607,23.186-9.816,36.968-12.513
	c5.622-1.099,14.639-2.797,25.711-3.182c11.072,0.385,20.075,2.083,25.711,3.182c5.479,1.07,10.601,2.383,15.495,3.938
	C696.644,637.994,706.375,653.86,706.375,671.524z" />
    <g>
	<path style="fill:#4F0A07;" d="M449.308,786.41c-0.514,0.442-9.274,7.962-10.701,6.663c-1.898-1.741,13.726-15.124,21.887-38.524
		c2.582-7.434,3.139-12.171,3.538-16.579c-15.709,15.766-24.427,24.298-31.504,30.134c1.355,14.182,4.751,33.815,13.155,54.432
		c3.667-7.747,7.419-16.893,11.957-28.037c7.434-18.306,9.445-27.266,8.432-27.709C464.946,766.306,460.666,776.607,449.308,786.41z
		" />
        <path style="fill:#4F0A07;" d="M793.795,766.791c-1.013,0.442,0.999,9.403,8.447,27.709c2.697,6.649,5.137,12.599,7.434,17.949
		c3.367-5.878,6.749-12.442,9.759-19.619c-3.039-1.398-8.475-6.064-8.875-6.421C799.217,776.607,794.922,766.306,793.795,766.791z" />
        <path style="fill:#4F0A07;" d="M796.206,718.066c-3.467-3.481-6.663-6.706-9.631-9.674c2.055,3.724,3.838,7.505,5.194,10.958
		c6.121,15.481,1.898,18.805,7.619,35.199c6.449,18.52,17.592,30.762,21.003,35.927c4.623-11.543,8.19-24.612,9.217-38.923
		C821.561,743.634,811.017,732.976,796.206,718.066z" />
</g>
    <path style="fill:#EF9A6A;" d="M706.375,671.524c0,32.788-33.544,59.383-74.907,59.383c-41.363,0-74.907-26.596-74.907-59.383
	c0-10.159,3.225-19.718,8.889-28.079c3.952-2.811,7.89-5.408,11.871-7.748c11.743-5.607,23.186-9.816,36.968-12.513
	c5.622-1.099,14.639-2.797,25.711-3.182c11.072,0.385,20.075,2.083,25.711,3.182c5.479,1.07,10.601,2.383,15.495,3.938
	C696.644,637.994,706.375,653.86,706.375,671.524z" />
    <path style="fill:#79010A;" d="M551.21,936.823c-0.399,2.911-0.885,5.636-1.427,8.147c-12.527,12.456-31.575,20.403-52.906,20.403
	c-37.696,0-68.258-24.798-68.258-55.403c0-8.304,2.254-16.18,6.292-23.257c5.636-1.598,16.908-7.905,26.053-17.664
	c2.911-3.11,5.051-5.978,6.663-8.318c0.271-0.385,0.528-0.77,0.77-1.127c1.798-0.671,3.653-1.284,5.536-1.826
	c0.228,2.283,0.043,5.693-0.628,9.802c-1.184,7.191-3.867,16.479-8.418,25.369c-6.849,13.383-14.824,19.818-13.198,21.759
	c1.784,2.14,13.64-3.082,23.186-11.414c7.819-6.834,12.385-14.268,15.324-19.305c2.283-3.909,3.581-6.378,4.651-6.021
	c1.298,0.428,1.298,4.58,0.613,10.216c-0.671,5.622-2.026,12.727-3.467,19.034c-6.064,26.567-14.211,41.891-11.414,43.517
	c2.097,1.213,8.789-6.092,12.128-10.344c8.304-10.601,9.888-20.36,12.128-19.975c1.712,0.285,2.197,6.207,2.14,9.988
	c-0.185,11.571-5.793,18.82-4.637,19.618c1.199,0.828,9.074-5.721,15.338-16.408c6.606-11.286,8.218-21.716,9.303-26.767
	c0.457-2.055,0.813-3.225,1.398-3.196c0.699,0.043,1.512,1.826,2.14,4.751c0.97,4.68,1.412,12.271,0,20.218
	c-2.155,12.142-7.591,19.247-5.707,20.689c1.712,1.313,8.104-3.139,12.841-8.561c7.89-9.003,10.244-19.576,11.429-25.554
	c0.585-2.982,0.885-4.808,1.412-4.765c0.557,0.043,1.127,2.126,1.455,5.636C552.395,920.843,552.38,928.276,551.21,936.823z" />
    <path style="fill:#D8D7D6;" d="M855.033,867.266c-0.885,2.069-13.526-0.186-24.741-5.236c-22.615-10.187-32.888-28.893-34.714-27.58
	c-0.029,0.014-0.043,0.043-0.071,0.071c-0.014,0.014-0.029,0.029-0.043,0.057c-1.027,1.741,5.522,14.625,14.382,27.452
	c1.056,1.527,2.083,2.968,3.068,4.323c9.802,13.369,16.665,18.934,15.481,20.418c-1.612,2.026-17.421-4.823-29.492-17.721
	c-4.98-5.322-7.676-9.931-9.445-12.399c-0.999-1.398-1.698-2.097-2.326-1.869c-0.357,0.128-0.642,0.556-0.856,1.213
	c-1.498,4.637,0.742,21.402,8.704,36.954c6.849,13.383,14.824,19.818,13.198,21.759c-1.784,2.14-13.64-3.082-23.185-11.414
	c-13.883-12.128-17.507-26.139-19.975-25.326c-2.568,0.842-0.029,16.622,2.854,29.249c6.064,26.567,14.225,41.891,11.414,43.517
	c-2.083,1.213-8.789-6.092-12.128-10.344c-8.304-10.601-9.888-20.36-12.128-19.975c-1.698,0.285-2.197,6.207-2.14,9.988
	c0.185,11.571,5.793,18.82,4.637,19.618c-1.184,0.828-9.075-5.721-15.338-16.408c-9.303-15.895-8.689-30.077-10.701-29.963
	c-1.826,0.1-4.437,12.042-2.14,24.969c2.154,12.142,7.591,19.247,5.707,20.689c-1.712,1.313-8.09-3.139-12.841-8.561
	c-11.785-13.483-11.229-30.462-12.841-30.32c-1.156,0.1-2.411,9.074-1.284,21.402c0.143,1.612,0.342,3.282,0.571,4.994
	c2.725,19.875,9.574,30.576,7.134,32.103c-2.497,1.569-12.684-7.89-19.975-19.262c-10.202-15.923-10.887-29.535-13.555-29.249
	c-2.854,0.314-3.524,16.28-3.21,25.326c0.228,6.335,0.457,12.513,2.854,20.332c2.154,7.006,4.623,10.601,3.567,11.414
	c-1.57,1.241-9.331-5.279-14.981-12.128c-5.693-6.92-8.675-13.498-10.344-17.478c-3.082-7.391-5.536-15.338-7.291-22.815
	c-0.342,1.869-0.628,3.981-0.813,6.421c-0.742,9.303,0.114,16.765,0.114,16.765c0.742,6.549,2.012,10.245,0.828,16.18
	c-1.013,5.094-3.325,9.231-4.152,9.032c-0.942-0.228,0.842-5.693-1.199-12.727c-1.327-4.594-3.952-8.732-4.865-8.432
	c-1.07,0.342,1.384,6.292,1.07,15.338c-0.357,10.33-4.095,17.707-5.95,21.274c-2.668,5.151-5.921,9.289-6.663,8.918
	c-0.842-0.414,2.882-6.05,1.912-13.312c-0.813-6.035-4.666-11.614-6.421-11.172c-2.497,0.614-2.04,13.469-1.07,21.274
	c0.685,5.55,1.641,8.689,0.827,9.046c-1.427,0.599-6.62-8.147-9.873-14.396c-2.854-5.493-8.218-16.751-12.356-34.471
	c-0.542-2.283-1.213-6.435-2.154-13.055c-0.742,2.083-1.527,4.123-2.369,6.135c-1.655,3.981-4.651,10.558-10.344,17.478
	c-5.65,6.849-13.398,13.369-14.981,12.128c-1.042-0.813,1.413-4.409,3.567-11.414c2.411-7.819,2.625-13.997,2.854-20.332
	c0.271-7.391-0.128-19.405-1.841-23.713c-0.4-0.97-0.842-1.555-1.37-1.612c-0.485-0.057-0.899,0.357-1.341,1.17
	c-1.883,3.595-3.867,15.067-12.213,28.079c-7.291,11.372-17.478,20.831-19.975,19.262c-2.083-1.298,2.597-9.289,5.707-23.956
	c0.542-2.511,1.027-5.236,1.427-8.147c1.17-8.547,1.184-15.98,0.742-20.76c-0.328-3.51-0.899-5.593-1.455-5.636
	c-0.528-0.043-0.827,1.784-1.412,4.765c-1.184,5.978-3.538,16.551-11.429,25.554c-4.737,5.422-11.129,9.873-12.841,8.561
	c-1.883-1.441,3.553-8.547,5.707-20.689c1.412-7.947,0.97-15.538,0-20.218c-0.628-2.925-1.441-4.708-2.14-4.751
	c-0.585-0.029-0.942,1.141-1.398,3.196c-1.084,5.051-2.697,15.481-9.303,26.767c-6.264,10.687-14.14,17.236-15.338,16.408
	c-1.156-0.799,4.452-8.047,4.637-19.618c0.057-3.781-0.428-9.702-2.14-9.988c-2.24-0.385-3.824,9.374-12.128,19.975
	c-3.339,4.252-10.03,11.557-12.128,10.344c-2.796-1.627,5.35-16.95,11.414-43.517c1.441-6.307,2.797-13.412,3.467-19.034
	c0.685-5.636,0.685-9.788-0.613-10.216c-1.07-0.357-2.368,2.112-4.651,6.021c-2.939,5.037-7.505,12.47-15.324,19.305
	c-9.545,8.333-21.402,13.555-23.186,11.414c-1.627-1.94,6.349-8.375,13.198-21.759c4.552-8.889,7.234-18.177,8.418-25.369
	c0.671-4.109,0.856-7.519,0.628-9.802c-1.883,0.542-3.738,1.156-5.536,1.826c-0.243,0.357-0.499,0.742-0.77,1.127
	c-1.612,2.34-3.753,5.208-6.663,8.318c-9.146,9.759-20.418,16.066-26.053,17.664c-1.812,0.514-3.053,0.556-3.439,0.057
	c-1.284-1.641,7.148-8.218,18.548-24.741c3.339-4.837,6.349-9.674,8.746-13.925c4.166-7.362,6.492-12.955,5.522-13.655
	c-0.856-0.613-3.596,3.21-8.618,8.489c-5.622,5.936-14.14,13.697-26.096,19.091c-11.2,5.051-23.856,7.305-24.726,5.236
	c-0.785-1.855,8.589-5.45,18.548-13.797c9.702-8.133,15.88-17.393,22.287-30.933c3.667-7.747,7.419-16.893,11.957-28.037
	c7.434-18.306,9.445-27.266,8.432-27.709c-1.127-0.485-5.408,9.816-16.765,19.619c-0.514,0.442-9.274,7.962-10.701,6.663
	c-1.898-1.741,13.726-15.124,21.887-38.524c2.582-7.434,3.139-12.171,3.538-16.579c5.593-5.636,12.114-12.199,19.761-19.904
	c9.246-9.303,16.608-16.694,22.515-22.601c20.717-20.731,23.499-23.186,26.71-25.911c11.857-10.087,22.244-18.862,32.431-26.11
	c-5.664,8.361-8.889,17.921-8.889,28.079c0,32.788,33.544,59.383,74.907,59.383c41.363,0,74.907-26.596,74.907-59.383
	c0-17.664-9.731-33.53-25.169-44.402c7.434,2.326,14.396,5.193,21.473,8.575c14.211,8.39,27.851,19.861,44.302,33.858
	c2.711,2.311,5.108,4.423,18.334,17.564c5.194,5.165,12.057,12.028,21.259,21.274c2.055,3.724,3.838,7.505,5.194,10.958
	c6.121,15.481,1.898,18.805,7.619,35.199c6.449,18.52,17.592,30.762,21.003,35.927c0.899,1.37,1.27,2.24,0.87,2.597
	c-0.314,0.285-0.97,0.143-1.826-0.243c-3.039-1.398-8.475-6.064-8.875-6.421c-11.343-9.802-15.638-20.104-16.765-19.619
	c-1.013,0.442,0.999,9.403,8.447,27.709c2.697,6.649,5.137,12.599,7.434,17.949c8.261,19.29,14.867,31.004,26.81,41.021
	C846.43,861.816,855.818,865.412,855.033,867.266z" />
    <path style="fill:#79010A;" d="M839.067,909.971c0,30.605-30.562,55.403-68.244,55.403c-28.137,0-52.292-13.811-62.736-33.544
	c-1.127-12.328,0.128-21.302,1.284-21.402c1.612-0.143,1.056,16.836,12.841,30.32c4.751,5.422,11.129,9.873,12.841,8.561
	c1.883-1.441-3.553-8.547-5.707-20.689c-2.297-12.927,0.314-24.869,2.14-24.969c2.012-0.114,1.398,14.068,10.701,29.963
	c6.264,10.687,14.154,17.236,15.338,16.408c1.156-0.799-4.452-8.047-4.637-19.618c-0.057-3.781,0.442-9.702,2.14-9.988
	c2.24-0.385,3.824,9.374,12.128,19.975c3.339,4.252,10.045,11.557,12.128,10.344c2.811-1.627-5.351-16.95-11.414-43.517
	c-2.882-12.627-5.422-28.408-2.854-29.249c2.468-0.813,6.092,13.198,19.975,25.326c9.545,8.333,21.402,13.555,23.185,11.414
	c1.627-1.94-6.349-8.375-13.198-21.759c-7.962-15.552-10.202-32.317-8.704-36.954c0.214-0.656,0.499-1.084,0.856-1.213
	c0.628-0.228,1.327,0.471,2.326,1.869c1.769,2.468,4.466,7.077,9.445,12.399c12.071,12.898,27.88,19.747,29.492,17.721
	c1.184-1.484-5.679-7.048-15.481-20.418C828.837,876.498,839.067,892.264,839.067,909.971z" />
    <path style="fill:#AD0B1F;" d="M970.276,775.851c-0.485,10.43-25.739,18.135-42.091,19.975
	c-29.035,3.267-51.864-9.488-66.346-17.835c-10.159-5.85-16.337-10.801-32.232-26.439c-8.047-7.919-18.591-18.577-33.401-33.487
	c-3.467-3.481-6.663-6.706-9.631-9.674c-9.203-9.246-16.066-16.109-21.259-21.274c-13.226-13.141-15.623-15.253-18.334-17.564
	c-16.451-13.997-30.091-25.468-44.302-33.858c-7.077-3.382-14.04-6.249-21.473-8.575c-4.894-1.555-10.016-2.868-15.495-3.938
	c-5.636-1.099-14.639-2.797-25.711-3.182c-11.072,0.385-20.089,2.083-25.711,3.182c-13.783,2.697-25.226,6.906-36.968,12.513
	c-3.981,2.34-7.919,4.937-11.871,7.748c-10.187,7.248-20.575,16.023-32.431,26.11c-3.21,2.725-5.993,5.179-26.71,25.911
	c-5.907,5.907-13.269,13.298-22.515,22.601c-7.648,7.705-14.168,14.268-19.761,19.904c-15.709,15.766-24.427,24.298-31.504,30.134
	c-4.98,4.109-9.146,6.877-14.368,9.888c-14.482,8.347-37.311,21.102-66.346,17.835c-16.351-1.841-41.62-9.545-42.091-19.975
	c-0.656-14.211,45.586-13.64,88.462-52.078c4.908-4.409,9.346-8.932,13.326-13.44c8.646-14.739,19.305-34.771,28.051-60.04
	c13.341-38.538,8.732-50.252,21.402-124.845c6.463-38.053,7.348-33.187,23.542-111.29c25.454-122.819,19.076-114.658,28.536-141.967
	c26.353-76.006,70.941-125.102,89.888-145.534c23.271-25.112,57.586-61.381,114.144-85.608
	c32.702-14.011,60.197-25.782,92.742-18.548c50.452,11.215,77.104,60.125,99.163,100.589c11.471,21.045,36.94,69.143,35.67,134.833
	c-0.585,30.077-1.784,92.942-43.517,119.138c-2.112,1.327-31.547,19.248-54.932,7.134c-34.229-17.735-28.322-85.779-22.829-87.035
	c2.311-0.528,3.553,10.972,15.695,22.829c8.004,7.819,25.04,19.99,37.81,15.695c15.267-5.137,18.12-31.704,20.689-55.645
	c3.553-33.102,7.234-67.459-13.555-102.016c-6.392-10.63-22.686-37.71-54.932-46.371c-6.363-1.712-27.437-7.362-46.371,2.14
	c-8.746,4.395-27.623,17.336-38.524,87.748c-4.309,27.808-9.274,76.947,0.713,151.954c1.455,10.887,7.562,54.975,23.542,112.004
	c8.661,30.89,17.978,57.629,29.05,86.906c1.969,5.507,5.022,13.769,9.117,23.671c3.41,8.275,7.448,17.45,19.262,42.091
	c7.976,16.651,11.971,24.969,13.854,28.536c12.827,24.413,29.178,45.501,42.091,57.072
	C924.69,762.211,970.918,761.64,970.276,775.851z" />
</svg>
