<?xml version="1.0" encoding="iso-8859-1"?><!-- Generator: Adobe Illustrator 22.0.0, SVG Export Plug-In . SVG Version: 6.00 Build 0)  -->
<svg version="1.1" id="Layer_1" xmlns="http://www.w3.org/2000/svg"
    xmlns:xlink="http://www.w3.org/1999/xlink" x="0px" y="0px" viewBox="0 0 1280 1024"
    style="enable-background:new 0 0 1280 1024;" xml:space="preserve">
<path style="fill:#C29B49;" d="M320.52,810.65c-0.79-2.42-3.05-4.06-5.6-4.06h-25.65l-7.65-23.54V629.31
	c-4.06,0.72-7.98,1.64-11.75,2.75v150.99l-7.64,23.54h-25.66c-2.55,0-4.81,1.64-5.6,4.06c-0.77,2.42,0.09,5.07,2.14,6.57
	l20.77,15.08l-7.94,24.4c-0.77,2.42,0.09,5.07,2.14,6.57c1.03,0.75,2.24,1.12,3.46,1.12c1.21,0,2.42-0.37,3.45-1.12l20.76-15.08
	l20.76,15.08c2.06,1.49,4.85,1.49,6.91,0c2.06-1.5,2.92-4.15,2.14-6.57l-7.94-24.4l20.76-15.08
	C320.44,815.72,321.3,813.07,320.52,810.65z M287.26,825.3c-2.06,1.49-2.92,4.15-2.14,6.57l3.67,11.26l-9.59-6.96
	c-1.03-0.75-2.24-1.12-3.45-1.12c-1.22,0-2.43,0.37-3.46,1.12l-9.58,6.96l3.67-11.26c0.78-2.42-0.08-5.08-2.14-6.57l-9.58-6.96
	h11.84c2.54,0,4.8-1.64,5.59-4.06l3.66-11.27l3.65,11.27c0.79,2.42,3.05,4.06,5.6,4.06h11.84L287.26,825.3z" />
    <path style="fill:#9B2929;" d="M740.981,427.999c0-35.71-10.525-53.568-31.569-53.568c-17.924,0-34.017,13.922-48.274,41.754
	c-12.088,23.357-21.728,52.417-28.922,87.179c-4.349,21.047-7.267,39.513-8.76,55.399c-0.681-5.159-1.018-12.221-1.018-21.183
	c0-9.23,0.542-20.129,1.629-32.689c1.087-12.558,1.629-23.39,1.629-32.488c0-10.862-0.885-19.553-2.647-26.07
	c-3.532-13.172-11.272-19.758-23.218-19.758c-17.792,0-31.641,13.443-41.552,40.329c-10.459,28.244-16.84,65.993-19.147,113.246
	c-6.384-41.685-9.573-82.827-9.573-123.431c0-20.095,1.695-39.173,5.092-57.236c0-3.936-1.19-7.026-3.566-9.266
	c-2.376-2.241-4.921-3.361-7.637-3.361c-3.258,0-5.366,1.563-6.315,4.683c-6.384,23.628-9.573,57.916-9.573,102.862
	c0,31.503,1.56,61.783,4.686,90.841c4.481,40.329,10.591,60.494,18.331,60.494c5.297,0,9.573-1.629,12.832-4.888
	c3.261-3.258,4.891-7.059,4.891-11.407c-0.545-11.814-0.816-20.297-0.816-25.459c0.135-10.862,1.355-26.546,3.668-47.051
	c3.391-31.503,8.483-57.98,15.274-79.436c8.149-25.935,18.261-38.905,30.349-38.905c8.417,0,12.627,7.471,12.627,22.405
	c0,9.643-1.903,26.549-5.701,50.719c-2.852,18.737-4.279,33.608-4.279,44.606c0,22.134,5.023,33.198,15.072,33.198
	c4.891,0,9.573-1.966,14.055-5.905c1.494-0.949,2.241-2.241,2.241-3.87c0-10.456,1.765-24.917,5.297-43.383
	c6.517-33.945,15.684-65.385,27.498-94.307c14.663-36.119,29.124-54.179,43.383-54.179c11.675,0,17.518,9.778,17.518,29.332
	c0,14.663-1.629,30.756-4.891,48.271c-3.123,16.295-7.809,37.92-14.055,64.873c-6.246,26.956-10.661,47.765-13.238,62.431
	c-1.223,7.062-1.834,13.985-1.834,20.773c0,12.224,3.668,22.203,11.001,29.943c7.872,8.42,19.075,12.627,33.608,12.627
	c1.22,0,2.241-0.407,3.054-1.22c0.816-0.816,1.223-1.834,1.223-3.057c0-1.084-0.407-2.069-1.223-2.954
	c-0.813-0.879-1.834-1.322-3.054-1.322c-3.126,0-5.978-0.816-8.556-2.445c-5.433-3.258-8.793-7.773-10.082-13.546
	c-1.292-5.77-1.936-10.826-1.936-15.175c0-10.317,3.123-31.434,9.372-63.343C735.278,493.586,740.981,451.901,740.981,427.999z" />
    <path style="fill:#9B2929;" d="M1060.154,564.466c-1.223,0-2.108,0.611-2.65,1.834c-5.294,10.727-12.085,20.641-20.366,29.738
	l-8.149,8.556c-1.765-19.963-4.617-41.007-8.552-63.144c-0.816-4.481-3.87-6.722-9.167-6.722c-3.803,0-6.11,1.563-6.926,4.686
	c-6.652,25.802-13.374,44.606-20.165,56.42c-1.629,2.719-3.394,4.075-5.294,4.075c-2.852,0-4.888-2.307-6.11-6.926
	c-1.629-6.243-2.445-12.627-2.445-19.144c0-8.42,0.407-16.5,1.223-24.239c0-2.716-0.849-4.752-2.545-6.11
	c-1.701-1.355-3.361-2.039-4.99-2.039c-3.126,0-5.092,1.497-5.909,4.481c-1.884,7.232-3.191,14.117-4.029,20.722
	c-9.582,21.436-18.561,39.858-26.932,55.254c-1.087,2.036-2.174,3.054-3.258,3.054c-2.445,0-3.665-3.87-3.665-11.609
	c0-11.678,2.102-24.101,6.312-37.273c0.271-0.816,0.41-1.698,0.41-2.65c0-4.481-2.174-7.399-6.52-8.757
	c-9.914-3.123-18.807-7.944-26.682-14.461c2.445-8.556,3.665-15.277,3.665-20.165c0-3.936-1.051-6.926-3.156-8.962
	c-2.108-2.039-4.583-3.057-7.435-3.057c-3.258,0-6.348,1.394-9.266,4.177c-2.918,2.786-4.379,7.026-4.379,12.729
	c0,7.468,3.665,14.054,10.998,19.758c-2.004,5.829-3.319,9.749-3.979,11.851c-9.601,21.484-18.597,39.942-26.982,55.365
	c-1.087,2.036-2.174,3.054-3.258,3.054c-2.445,0-3.665-3.87-3.665-11.609c0-11.678,2.102-24.101,6.312-37.273
	c0.271-0.816,0.41-1.698,0.41-2.65c0-4.481-2.174-7.399-6.52-8.757c-9.914-3.123-18.807-7.944-26.682-14.461
	c2.445-8.556,3.665-15.277,3.665-20.165c0-3.936-1.051-6.926-3.156-8.962c-2.108-2.039-4.583-3.057-7.435-3.057
	c-3.258,0-6.348,1.394-9.266,4.177c-2.918,2.786-4.379,7.026-4.379,12.729c0,7.468,3.665,14.054,10.998,19.758
	c-2.014,5.859-3.332,9.788-3.988,11.882c-8.488,19.121-14.428,31.53-17.803,37.205c-2.313,4.075-5.433,6.11-9.372,6.11
	c-6.791,0-11.203-7.739-13.238-23.218c7.197-3.261,13.169-8.215,17.924-14.871c4.752-6.652,7.128-13.85,7.128-21.589
	c0-3.668-1.018-7.161-3.054-10.489c-2.039-3.328-5.297-4.993-9.778-4.993c-1.903,0-3.734,0.343-5.499,1.021
	c-7.875,2.852-13.783,8.08-17.719,15.684c-5.297,10.182-7.944,20.845-7.944,31.976c0,10.73,2.475,19.692,7.435,26.886
	c4.954,7.2,10.895,10.796,17.822,10.796c9.911,0,17.518-4.346,22.812-13.037c4.888-8.553,9.369-17.719,13.443-27.495
	c3.394-7.875,5.092-12.085,5.092-12.63c0-0.107-0.046-0.179-0.052-0.282l3.307-8.274c7.604,4.481,15.482,8.218,23.628,11.203
	c-0.274,1.09-0.681,2.313-1.223,3.668c-8.827,21.05-13.238,36.866-13.238,47.458c0,5.568,1.253,10.118,3.767,13.648
	c2.512,3.532,6.213,5.294,11.1,5.294c7.468-0.133,13.853-5.092,19.147-14.868c8.281-15.072,17.313-33.813,27.091-56.218
	c0.271-0.539,0.407-1.084,0.407-1.629c0-0.105-0.045-0.176-0.051-0.277l3.31-8.279c7.604,4.481,15.482,8.218,23.628,11.203
	c-0.274,1.09-0.681,2.313-1.223,3.668c-8.827,21.05-13.238,36.866-13.238,47.458c0,5.568,1.253,10.118,3.767,13.648
	c2.512,3.532,6.213,5.294,11.1,5.294c7.468-0.133,13.853-5.092,19.147-14.868c6.03-10.975,12.463-23.92,19.288-38.784
	c0.101,1.948,0.251,3.88,0.471,5.787c1.084,8.146,4.207,14.054,9.369,17.719c2.852,2.036,5.975,3.054,9.372,3.054
	c10.859,0,20.297-11.811,28.311-35.439c2.171-6.381,4.276-12.832,6.315-19.352c2.036,19.147,3.054,40.402,3.054,63.753
	c-14.53,12.766-26.004,23.495-34.421,32.183c-10.73,11.269-18.876,24.101-24.444,38.495c-2.849,7.465-4.276,15.208-4.276,23.221
	c0,8.146,1.834,15.714,5.499,22.709c3.668,6.993,9.504,11.983,17.518,14.97c3.8,1.355,7.67,2.039,11.609,2.039
	c7.604,0,14.732-2.379,21.387-7.131c8.556-6.11,15.376-17.485,20.469-34.117c5.092-16.635,7.64-37.715,7.64-63.244
	c0-11.946-0.41-24.302-1.223-37.068c4.752-4.891,9.164-9.573,13.238-14.054c8.688-9.369,15.75-19.689,21.182-30.961
	c0.271-0.539,0.41-1.084,0.41-1.629C1064.635,565.623,1063.138,564.466,1060.154,564.466z M765.221,576.079
	c0-13.308,2.647-22.947,7.944-28.925c2.171-2.442,4.207-3.665,6.11-3.665c2.716,0,4.075,2.515,4.075,7.535
	c-0.139,5.433-1.903,10.627-5.297,15.581c-3.394,4.96-7.673,8.932-12.832,11.916V576.079z M813.901,542.672
	c-1.361-2.713-2.039-5.631-2.039-8.757c0-2.716,0.235-4.614,0.714-5.704c0.473-1.084,1.051-1.629,1.732-1.629
	c1.084,0,1.629,1.156,1.629,3.463C815.936,533.984,815.256,538.191,813.901,542.672z M887.838,542.672
	c-1.361-2.713-2.039-5.631-2.039-8.757c0-2.716,0.235-4.614,0.714-5.704c0.473-1.084,1.051-1.629,1.732-1.629
	c1.084,0,1.629,1.156,1.629,3.463C889.874,533.984,889.193,538.191,887.838,542.672z M999.048,715.804
	c-6.249,20.092-14.735,30.145-25.462,30.145c-3.123,0-5.975-1.156-8.552-3.463c-6.926-5.839-10.39-14.53-10.39-26.07
	c0-7.2,1.223-14.055,3.668-20.574c5.159-13.579,12.763-25.528,22.812-35.848c9.369-9.501,18.942-18.532,28.72-27.088
	C1009.161,667.124,1005.565,694.754,999.048,715.804z" />
    <path style="fill:#9B2929;" d="M585.964,841.117c8.25-10.178,12.377-20.098,12.377-29.758c0-6.144-1.846-9.216-5.529-9.216
	c-4.392,0-7.289,3.072-8.69,9.216c-2.636-3.333-5.097-5.003-7.374-5.003c-3.512,0-5.268,2.725-5.268,8.165
	c0,4.738,1.756,9.742,5.268,15.009C580.256,834.798,583.332,838.66,585.964,841.117z" />
    <path style="fill:#9B2929;" d="M1118.43,856.39c-2.1,0-3.6,0.97-4.47,2.9c-4.74,9.48-12.64,18.34-23.7,26.59
	c-3.17-3.85-6.59-7.46-10.27-10.79c-4.74-4.57-10.01-10.62-15.8-18.17c6.49-2.46,12.02-6.41,16.59-11.85
	c5.61-6.32,8.42-13.43,8.42-21.33c0-5.09-1.49-9.52-4.47-13.3c-2.99-3.78-7.12-5.66-12.38-5.66c-5.79,0-10.89,2.2-15.27,6.58
	c-8.08,7.9-12.12,18.79-12.12,32.65c0,5.42,0.89,10.52,2.62,15.31c-20,45.27-32.03,67.91-36.06,67.91c-2.63,0-4.74-3.51-6.32-10.53
	c-1.94-7.73-2.9-17.73-2.9-30.03c0-10.17,0.31-17.85,0.93-23.04c0.61-5.17,0.91-8.11,0.91-8.82c0-2.98-1.23-5.27-3.68-6.84
	c-3.69-2.29-7.46-3.43-11.33-3.43c-2.46,0-4.3,1.14-5.52,3.43c-14.4,30.54-24.06,45.81-28.97,45.81c-5.44,0-8.17-7.81-8.17-23.43
	c0-11.41,2.46-22.29,7.38-32.66c3.69-7.72,8.16-11.58,13.43-11.58c4.03,0,6.76,2.46,8.16,7.37c0.7,2.28,2.19,3.42,4.48,3.42
	c3.33,0,5-1.49,5-4.47l-0.26-1.84c-2.99-9.49-9.31-14.23-18.96-14.23c-11.42,0-21.2,5.8-29.37,17.38
	c-5.41,7.7-8.99,16.34-10.82,25.89l-7.48,16.51c-17.9,40.56-29.32,60.83-34.23,60.83c-2.46,0-3.69-2.11-3.69-6.32
	c0-7.02,2.46-21.68,7.38-43.98c4.03-18.25,6.05-32.39,6.05-42.39c0-18.79-6.58-28.18-19.75-28.18c-8.78,0-17.29,5.88-25.54,17.64
	c-7.03,10.19-12.47,21.6-16.33,34.24l-0.26-10.01c-0.18-5.62-1.67-10.66-4.48-15.14c-2.81-4.48-6.76-6.72-11.85-6.72
	c-13.16,0-22.91,9.57-29.23,28.71c-2.46,7.55-4.57,15.27-6.32,23.17c-0.53-8.6-0.79-17.47-0.79-26.6c0-12.28,0.44-21.2,1.32-26.72
	c0.87-5.53,1.31-8.65,1.31-9.35c0-6.15-4.56-9.22-13.69-9.22c-2.46,0-3.95,1.32-4.48,3.95c-2.89,13.56-5.02,26.72-6.43,39.48
	c-12.57,28.12-20.61,45.69-24.12,52.69c-2.46,4.92-5,7.37-7.63,7.37c-3.16,0-5.53-4.56-7.11-13.69c-0.35-2.11-1.06-10.45-2.11-25.02
	c-0.7-12.11-1.05-24.22-1.05-36.34h14.22c1.22,0,2.28-0.44,3.16-1.32c0.87-0.87,1.31-1.92,1.31-3.15c0-1.23-0.44-2.24-1.31-3.03
	c-0.88-0.79-1.94-1.19-3.16-1.19L715,836.38c0.17-17.56,0.79-35.2,1.84-52.93v-4.75c0-2.8-0.79-4.91-2.37-6.31
	c-2.46-2.11-5.18-3.16-8.16-3.16c-2.63,0-4.13,1.31-4.48,3.95c-4.04,22.64-7.02,43.89-8.95,63.72l-15.01,0.53
	c-1.58,0.53-2.37,1.41-2.37,2.64c0,1.23,0.44,2.28,1.31,3.15c0.88,0.88,1.94,1.32,3.17,1.32h12.11c-0.42,5.16-0.74,10.19-1.02,15.16
	c-4.76,9.33-12.57,18.06-23.47,26.18c-3.16-3.85-6.59-7.46-10.27-10.79c-4.74-4.57-10.01-10.62-15.8-18.17
	c6.49-2.46,12.02-6.41,16.59-11.85c5.62-6.32,8.42-13.43,8.42-21.33c0-5.09-1.49-9.52-4.47-13.3c-2.99-3.78-7.11-5.66-12.38-5.66
	c-5.79,0-10.89,2.2-15.27,6.58c-8.08,7.9-12.11,18.79-12.11,32.65c0,5.42,0.88,10.52,2.61,15.31
	c-15.96,35.97-25.09,53.95-27.37,53.95c-2.46,0-3.69-8.16-3.69-24.49c0-11.41,0.18-21.86,0.53-31.33c0-6.68-4.39-10.01-13.16-10.01
	c-2.11,0-3.52,0.79-4.22,2.37s-1.23,4.04-1.58,7.37c-0.11,0.72-0.18,1.43-0.28,2.15c-12.46,27.89-24.13,51.84-35.01,71.85
	c-1.4,2.63-2.81,3.95-4.21,3.95c-3.16,0-4.74-5-4.74-15.01c0-15.1,2.72-31.16,8.16-48.19c0.35-1.05,0.53-2.2,0.53-3.43
	c0-5.79-2.81-9.56-8.43-11.32c-12.82-4.04-24.31-10.27-34.5-18.69c3.17-11.07,4.74-19.76,4.74-26.08c0-5.08-1.36-8.95-4.08-11.58
	c-2.72-2.64-5.92-3.95-9.61-3.95c-4.21,0-8.21,1.8-11.98,5.4c-3.77,3.6-5.66,9.08-5.66,16.45c0,9.66,4.74,18.17,14.22,25.55
	c-2.59,7.52-4.29,12.59-5.14,15.31c-22.56,49.65-35.33,74.49-38.31,74.49c-2.11,0-3.16-1.58-3.16-4.74c0-7.9,1.22-17.47,3.69-28.71
	c2.8-12.46,4.21-22.82,4.21-31.07c0-9.31-2.46-16.33-7.38-21.07c-4.04-3.86-8.69-5.79-13.95-5.79c-12.12,0-23,8.52-32.66,25.54
	c-4.91,8.78-8.6,18.17-11.06,28.18c-2.98-17.38-5.18-35.46-6.58-54.25c11.94-10.7,23.61-23.52,35.02-38.45
	c15.28-19.66,27.96-40.82,38.06-63.46c10.09-22.65,15.14-44.24,15.14-64.78c0-10.54-2.29-20.02-6.85-28.44
	c-3.86-7.2-9.66-12.29-17.38-15.28c-3.34-1.22-6.67-1.84-10.01-1.84c-6.84,0-13.08,1.23-18.69,3.69
	c-21.64,9.29-37.44,30.37-47.43,63.17c1.03-3.7,1.95-7.45,2.66-11.3c0.87-4.74,1.31-9.38,1.31-13.95c0-14.4-3.77-26.42-11.32-36.08
	c-9.83-12.81-24.58-19.22-44.24-19.22h-1.58c-0.7-0.36-1.49-0.53-2.37-0.53c-41.08,0-73.91,13.61-98.49,40.82
	c-17.21,18.96-28.4,39.72-33.57,62.28c-5.18,22.56-7.77,43.58-7.77,63.07c0,17.21,2.02,35.81,6.05,55.82
	c6.85,33.71,17.82,62.51,32.92,86.38c18.08,28.79,40.12,43.19,66.1,43.19c18.6,0,34.14-8.78,46.61-26.34
	c7.41-10.34,17.63-29.95,30.62-58.74c1.75,16.94,4.25,33.38,7.56,49.26c1.23,5.45,5.54,8.17,12.91,8.17c4.39,0,8.47-0.96,12.24-2.9
	c3.78-1.93,5.67-4.91,5.67-8.95c0-20.54,4.47-38.71,13.43-54.51c7.02-12.29,13.78-18.44,20.27-18.44c2.99,0,4.48,1.94,4.48,5.79
	c0,5.98-2.55,18.09-7.64,36.35c-4.04,14.92-6.05,26.86-6.05,35.81c0,8.08,2.1,14.05,6.32,17.91c3.68,3.33,7.9,5,12.64,5
	c8.07,0,15.62-6.49,22.64-19.49c8.31-15.46,19.1-38.97,32.3-70.34c0.87-0.47,1.53-1.22,1.94-2.34l5.26-13.17
	c9.83,5.8,20.02,10.63,30.55,14.49c-0.35,1.41-0.88,2.99-1.58,4.74c-11.41,27.21-17.12,47.66-17.12,61.36
	c0,7.2,1.62,13.08,4.88,17.64c3.24,4.57,8.03,6.85,14.35,6.85c9.65-0.17,17.91-6.59,24.75-19.23c7.41-13.48,15.29-29.29,23.63-47.31
	c-0.12,3.31-0.19,6.62-0.19,9.92c0,12.11,1.84,21.77,5.53,28.97c2.28,4.39,5.88,6.58,10.8,6.58c6.84,0,13.07-5.18,18.7-15.54
	c7.33-13.8,15.11-30.05,23.32-48.74c3.08,4.41,6.34,8.57,9.86,12.4c5.09,5.62,8.68,10.19,10.79,13.7
	c-7.02,4.04-12.9,7.54-17.64,10.53c-6.32,4.04-11.32,9.39-15.01,16.06c-2.11,4.04-3.16,8.34-3.16,12.9c0,7.9,2.85,14.32,8.55,19.23
	c5.71,4.92,12.34,7.38,19.89,7.38c11.59,0,20.8-4.17,27.65-12.51c6.85-8.34,10.27-18.04,10.27-29.1c0-9.84-2.72-18.79-8.16-26.87
	c6.54-4.76,12.08-9.97,16.69-15.59c-0.07,3.13-0.11,6.23-0.11,9.28c0,14.04,1.49,26.42,4.48,37.13
	c3.69,13.69,10.18,20.54,19.49,20.54c9.3,0,17.99-8.08,26.07-24.23c2.52-5.21,7.49-16.15,14.84-32.73
	c-0.04,2.14-0.09,4.28-0.09,6.39c0,26.34,2.89,41.26,8.69,44.77c3.16,1.94,6.84,2.9,11.06,2.9c3.16,0,5.75-0.96,7.77-2.9
	c2.01-1.93,3.03-4.21,3.03-6.84c0-13.7,1.57-28.71,4.73-45.03c2.81-14.57,6.85-25.72,12.12-33.45c2.98-4.21,5.53-6.32,7.64-6.32
	c2.63,0,3.94,2.9,3.94,8.69c0,11.06-0.7,20.37-2.1,27.91c-1.58,9.31-2.37,17.56-2.37,24.76c0,13.34,3.86,20.01,11.58,20.01
	c3.69,0,7.64-1.58,11.85-4.74c0.88-0.7,1.36-1.75,1.45-3.16c0.09-1.4,0.14-2.54,0.14-3.42c0.35-24.05,5.26-46.08,14.74-66.1
	c3.34-7.2,7.81-13.6,13.43-19.22c2.46-2.64,4.83-3.95,7.11-3.95c2.98,0,4.48,2.55,4.48,7.63c-0.18,9.48-2.29,21.16-6.32,35.03
	c-8.43,28.44-12.64,48.36-12.64,59.78c0,9.3,2.81,16.32,8.42,21.06c2.81,2.46,6.24,3.69,10.27,3.69c10.19,0,18.7-6.49,25.55-19.49
	c7.88-14.89,16.23-31.93,25.05-51.04c0.84,7.44,2.66,13.2,5.5,17.2c4.04,5.71,9.12,8.56,15.27,8.56c5.62,0,10.36-1.75,14.22-5.26
	c6.67-5.97,13.61-15.54,20.8-28.71c-1.4,12.64-2.1,23.35-2.1,32.13c0,13.34,1.58,24.23,4.74,32.65c3.51,9.31,8.78,13.96,15.8,13.96
	s13.86-5.44,20.54-16.33c9.12-15.27,17.55-31.73,25.28-49.37c3.81-8.71,6.7-15.29,8.67-19.79c3.05,4.37,6.28,8.49,9.76,12.28
	c5.09,5.62,8.69,10.19,10.8,13.7c-7.02,4.04-12.91,7.54-17.64,10.53c-6.32,4.04-11.33,9.39-15.01,16.06
	c-2.11,4.04-3.17,8.34-3.17,12.9c0,7.9,2.86,14.32,8.56,19.23c5.71,4.92,12.34,7.38,19.89,7.38c11.58,0,20.8-4.17,27.65-12.51
	c6.84-8.34,10.27-18.04,10.27-29.1c0-9.84-2.73-18.79-8.17-26.87c12.29-8.95,21.16-19.39,26.6-31.33l0.26-1.32
	C1123.17,857.97,1121.6,856.39,1118.43,856.39z M346.06,823.21c0,12.42,0.41,24.56,1.14,36.48c-9.23,20.88-17.34,38.05-24.31,51.47
	c-11.77,22.83-25.55,34.24-41.35,34.24c-17.21,0-33.18-13.17-47.93-39.5c-11.94-21.24-21.32-45.82-28.17-73.73
	c-6.15-24.4-9.22-46.97-9.22-67.68c0-30.37,4.74-56.44,14.22-78.22c12.44-28.14,32.25-46.21,59.43-54.21
	c3.77-1.11,7.69-2.03,11.75-2.75c7.56-1.35,15.61-2.02,24.15-2.02c21.42,0,35.29,8.6,41.61,25.8c1.4,3.52,2.28,10.1,2.63,19.75
	c0,3.69-0.26,7.29-0.79,10.8c-2.99,17.91-9.83,34.15-20.54,48.72c-7.9,10.71-17.47,19.4-28.7,26.07c-1.76,1.23-2.64,2.81-2.64,4.74
	c0,3.86,2.2,5.79,6.59,5.79c0.7,0,1.4-0.17,2.1-0.52c13.7-7.02,25.19-16.59,34.5-28.71c9.07-11.75,15.79-24.54,20.21-38.34
	C350.96,736.25,346.06,776.85,346.06,823.21z M372.13,787.92c0-83.04,14.39-131.4,43.19-145.1c3.86-1.93,7.81-2.9,11.85-2.9
	c6.14,0,11.5,2.38,16.06,7.12c6.15,6.67,9.22,16.15,9.22,28.44c0,31.25-12.2,65.48-36.6,102.7c-12.29,18.79-26.52,35.9-42.67,51.35
	C372.48,816.02,372.13,802.14,372.13,787.92z M489.32,828.74c-1.76-3.51-2.64-7.28-2.64-11.32c0-3.51,0.31-5.97,0.93-7.38
	c0.61-1.4,1.36-2.1,2.24-2.1c1.4,0,2.1,1.49,2.1,4.47C491.95,817.51,491.07,822.95,489.32,828.74z M638.37,847.7
	c-0.35-1.75-0.53-3.6-0.53-5.53c0-3.68,0.62-7.9,1.85-12.64c2.27-9.3,5.96-13.96,11.05-13.96c3.87,0,5.8,2.64,5.8,7.91
	C656.54,834.89,650.48,842.96,638.37,847.7z M647.06,946.72c-2.81,2.46-5.8,3.68-8.95,3.68c-2.64,0-5.19-1.05-7.64-3.16
	c-3.34-2.98-5.01-6.84-5.01-11.59c0-8.07,4.65-15.09,13.96-21.06c4.74-2.99,10.09-6.14,16.07-9.48c1.75,4.74,2.63,9.92,2.63,15.54
	C658.12,931.71,654.43,940.4,647.06,946.72z M1061.02,847.7c-0.35-1.75-0.52-3.6-0.52-5.53c0-3.68,0.61-7.9,1.84-12.64
	c2.28-9.3,5.97-13.96,11.06-13.96c3.86,0,5.79,2.64,5.79,7.91C1079.19,834.89,1073.14,842.96,1061.02,847.7z M1069.71,946.72
	c-2.8,2.46-5.79,3.68-8.95,3.68c-2.63,0-5.18-1.05-7.64-3.16c-3.33-2.98-5-6.84-5-11.59c0-8.07,4.65-15.09,13.96-21.06
	c4.74-2.99,10.09-6.14,16.06-9.48c1.76,4.74,2.64,9.92,2.64,15.54C1080.78,931.71,1077.09,940.4,1069.71,946.72z" />
    <g>
	<path style="fill:#C29B49;" d="M1091.877,502.452c-18.261-3.046-36.555-3.555-52.04-3.65h-0.012
		c-15.517,0.109-33.835,0.629-52.038,3.65l-5.409,0.897l5.409,0.898c18.184,3.018,36.51,3.539,52.05,3.649
		c15.485-0.095,33.779-0.604,52.04-3.649l5.38-0.898L1091.877,502.452z" />
        <path style="fill:#C29B49;" d="M1022.354,484.943c10.524-3.456,22.835-7.916,34.363-14.801l3.344-1.996l-3.88,0.307
		c-13.382,1.061-26.007,4.553-36.608,7.831c-10.542,3.478-22.867,7.958-34.361,14.801l-3.363,2.002l3.902-0.314
		C999.091,491.701,1011.732,488.215,1022.354,484.943z" />
        <path style="fill:#C29B49;" d="M1022.348,418.621l2.154-3.243l-3.367,1.953c-11.623,6.739-21.5,15.334-29.641,22.863
		c-8.011,7.688-17.198,17.048-24.613,28.181l-2.168,3.259l3.383-1.967c11.573-6.729,21.472-15.327,29.639-22.862
		C1005.737,439.146,1014.917,429.81,1022.348,418.621z" />
        <path style="fill:#C29B49;" d="M951.385,422.921c3.474-10.518,7.202-23.074,8.516-36.436l0.38-3.874l-2.057,3.304
		c-7.101,11.394-11.794,23.622-15.454,34.095c-3.468,10.546-7.192,23.123-8.518,36.433l-0.389,3.896l2.068-3.326
		C942.989,445.654,947.701,433.414,951.385,422.921z" />
        <path style="fill:#C29B49;" d="M1067.774,429.993l4.176-3.505l-5.09,1.961c-17.282,6.657-33.292,15.515-46.684,23.305
		c-13.306,7.977-28.814,17.728-42.966,29.581l-4.204,3.523l5.115-1.977c17.221-6.65,33.258-15.509,46.685-23.302
		C1038.097,451.627,1053.596,441.894,1067.774,429.993z" />
        <path style="fill:#C29B49;" d="M1014.284,381.105l2.617-4.785l-4.03,3.675c-13.688,12.481-25.39,26.544-35.04,38.666
		c-9.502,12.266-20.415,26.986-29.291,43.163l-2.64,4.81l4.05-3.701c13.621-12.441,25.352-26.52,35.038-38.661
		C994.487,412.036,1005.393,397.34,1014.284,381.105z" />
        <path style="fill:#C29B49;" d="M803.407,498.67c-15.487,0.095-33.781,0.604-52.04,3.65l-5.38,0.897l5.38,0.898
		c18.263,3.044,36.555,3.553,52.052,3.647c15.522-0.108,33.842-0.629,52.036-3.647l5.409-0.898l-5.409-0.897
		C837.252,499.299,818.936,498.779,803.407,498.67z" />
        <path style="fill:#C29B49;" d="M823.653,476.147c-10.583-3.272-23.208-6.764-36.591-7.825l-3.88-0.307l3.344,1.996
		c11.526,6.882,23.839,11.345,34.381,14.806c10.613,3.267,23.257,6.752,36.586,7.825l3.9,0.314l-3.362-2.002
		C846.541,484.11,834.214,479.63,823.653,476.147z" />
        <path style="fill:#C29B49;" d="M851.751,440.061l-0.012-0.012c-8.131-7.52-18.01-16.117-29.629-22.851l-3.365-1.951l2.152,3.241
		c7.423,11.179,16.606,20.521,24.623,28.195c8.161,7.526,18.061,16.126,29.627,22.851l3.383,1.965l-2.168-3.257
		C868.952,457.115,859.763,447.753,851.751,440.061z" />
        <path style="fill:#C29B49;" d="M891.866,422.803c3.673,10.469,8.38,22.705,15.446,34.077l2.065,3.326l-0.387-3.896
		c-1.323-13.311-5.048-25.887-8.522-36.448c-3.653-10.457-8.346-22.683-15.45-34.079l-2.058-3.302l0.381,3.872
		C884.656,399.711,888.387,412.267,891.866,422.803z" />
        <path style="fill:#C29B49;" d="M823.057,451.613c-13.386-7.786-29.4-16.643-46.674-23.297l-5.09-1.961l4.178,3.505
		c14.183,11.907,29.678,21.636,42.978,29.591c13.424,7.79,29.467,16.651,46.674,23.297l5.115,1.977l-4.204-3.521
		C851.889,469.351,836.376,459.598,823.057,451.613z" />
        <path style="fill:#C29B49;" d="M894.705,461.689c-8.869-16.164-19.786-30.889-29.302-43.171
		c-9.646-12.116-21.349-26.183-35.032-38.656l-4.03-3.673l2.62,4.783c8.893,16.239,19.799,30.933,29.302,43.173
		c9.674,12.128,21.401,26.206,35.032,38.653l4.048,3.695L894.705,461.689z" />
        <path style="fill:#C29B49;" d="M921.625,461.222l0.898-5.409c3.016-18.196,3.537-36.515,3.646-52.18
		c-0.095-15.491-0.604-33.789-3.646-52.04l-0.898-5.378l-0.897,5.378c-3.048,18.257-3.557,36.551-3.651,52.184
		c0.108,15.517,0.629,33.835,3.651,52.038L921.625,461.222z" />
        <polygon style="fill:#C29B49;" points="928.096,483.27 921.622,463.34 915.147,483.27 894.194,483.27 911.145,495.585
		904.671,515.513 921.622,503.197 938.572,515.513 932.098,495.585 949.049,483.27 	" />
</g>
    <rect x="507.56" y="660.896" style="fill:#C29B49;" width="441.488" height="10.772" />
    <path style="fill:#6A7F29;" d="M639.748,422.425l-3.134,4.935c-47.027-26.572-83.972-69.096-110.93-116.053
	c-17.859-31.039-31.741-64.032-43.284-97.609c-3.123,10.116-6.444,20.268-10.116,30.232c-9.906,27.402-22.069,54.477-37.53,80.101
	c-15.496,25.554-33.998,49.904-56.079,71.154c-8.818,8.514-18.151,16.572-27.917,24.116c5.064,1.017,10.14,1.52,15.286,1.672
	l45.121,1.275l-15.859,39.39c-8.339,20.712-23.344,39.144-41.027,51.448c-17.672,12.327-36.793,20.034-55.763,24.022
	c-18.981,4.058-37.706,5.532-56.149,4.807c-4.701-0.269-9.345-0.585-13.952-0.994c4.959,4.514,10.432,8.678,16.268,12.397
	c17.952,11.099,39.109,19.636,61.237,20.525l0.749,5.801c-23.625,5.368-48.559,1.789-71.587-6.959
	c-22.935-8.807-45.46-24.361-59.342-48.886l-14.853-26.268l34.104,2.678c13.859,1.099,30.513,0.643,45.694-1.556
	c15.368-2.105,30.49-5.111,44.126-10.28c11.59-4.456,22.35-9.614,31.063-16.186c-16.186-6.538-30.034-15.941-42.127-26.256
	l-36.548-31.145l42.045-17.835c23.449-9.941,45.834-22.747,65.587-39.343c19.929-16.35,37.46-35.963,52.57-57.67
	c15.157-21.695,27.882-45.471,38.817-70.406c11.192-25.051,19.601-50.734,30.431-78.394l6.023-15.368l10.877-7.906l11.04,8.023
	l3.719,17.087c11.146,51.19,23.741,101.843,45.623,148.835C565.728,348.464,597.013,391.819,639.748,422.425z" />
    <polygon style="fill:#C29B49;" points="504.866,112.371 518.046,152.93 494.585,135.89 483.545,127.867 472.668,135.773
	449.044,152.93 462.224,112.371 427.723,87.308 470.364,87.308 483.545,46.748 496.726,87.308 539.367,87.308 " />
    <path style="fill:#C29B49;" d="M1152.97,656.123c-1.181,1.603-19.543,45.913-19.543,45.913l-36.17-12.426l30.102,22.266
	l-23.407,36.671l30.492-25.135l18.262,34.621l-8.509-40.045l33.655-1.996l-32.385-11.131L1152.97,656.123z" />
    <path style="fill:#C29B49;" d="M640.655,244.181c0.15,1.985,15.124,47.552,15.124,47.552l-35.525,14.166l37.341-2.749l6.168,43.065
	l6.726-38.94l36.422,14.338l-32.564-24.81l24.213-23.46l-31.81,12.68L640.655,244.181z" />
    <path style="fill:#C29B49;" d="M96.396,607.945c0.498,1.928,23.278,44.137,23.278,44.137l-32.468,20.212L123.475,663l13.67,41.301
	l-0.251-39.515l38.38,7.686l-36.431-18.675l19.693-27.364l-29.074,18.094L96.396,607.945z" />
    <path style="fill:#C29B49;" d="M325.611,231.437c-1.181,1.603-19.543,45.913-19.543,45.913l-36.17-12.426L300,287.19l-23.407,36.671
	l30.492-25.135l18.262,34.621l-8.509-40.045l33.655-1.996l-32.385-11.131L325.611,231.437z" />
    <path style="fill:#C29B49;" d="M798.648,701.106c0.764,1.839,29.24,40.435,29.24,40.435l-29.311,24.567l34.607-14.292l19.329,38.975
	l-5.792-39.089l39.079,2.226l-38.691-13.379l15.659-29.857l-26.248,21.993L798.648,701.106z" />
    <path style="fill:#C29B49;" d="M541.39,781.68c1.801-0.85,39.009-31.117,39.009-31.117l25.925,28.118l-15.91-33.893l38.019-21.148
	l-38.772,7.632l0.377-39.14l-11.537,39.28l-30.563-14.232l23.209,25.18L541.39,781.68z" />
    <path style="fill:#C29B49;" d="M955.699,258.284c0.48,1.932,22.859,44.356,22.859,44.356l-32.658,19.904l36.356-8.951l13.278,41.429
	l0.123-39.516l38.305,8.049l-36.253-19.019l19.951-27.177l-29.244,17.818L955.699,258.284z" />
</svg>
